<svg xmlns="http://www.w3.org/2000/svg" width="400" height="399" viewBox="0 0 400 399">
  <defs>
    <style>
      .cls-1 {
        fill: #1374cf;
        fill-rule: evenodd;
      }
    </style>
  </defs>
  <g id="Domain_Driven_Design_-_Peacock" data-name="Domain Driven Design - Peacock">
    <path class="cls-1" d="M894.563,1327.68a65.452,65.452,0,0,1-14.81,22.55,67.855,67.855,0,0,1-23,14.73,80.473,80.473,0,0,1-29.813,5.31h-54.72V1227.73h54.72a80.676,80.676,0,0,1,29.813,5.3,67.519,67.519,0,0,1,23,14.78,66.118,66.118,0,0,1,14.81,22.55A80.954,80.954,0,0,1,894.563,1327.68Zm-27.9-48.87a42.54,42.54,0,0,0-8.433-15.13,36.958,36.958,0,0,0-13.386-9.53,45.678,45.678,0,0,0-17.9-3.34h-25.1v96.37h25.1a46.228,46.228,0,0,0,17.9-3.29,36.032,36.032,0,0,0,13.386-9.53,43.033,43.033,0,0,0,8.433-15.18A70.738,70.738,0,0,0,866.662,1278.81Zm-122.431,71.42a67.893,67.893,0,0,1-23,14.73,80.462,80.462,0,0,1-29.811,5.31H636.7V1227.73h54.722a80.665,80.665,0,0,1,29.811,5.3,67.557,67.557,0,0,1,23,14.78,66.052,66.052,0,0,1,14.807,22.55,80.9,80.9,0,0,1,0,57.32A65.387,65.387,0,0,1,744.231,1350.23Zm-13.093-71.42a42.481,42.481,0,0,0-8.434-15.13,36.929,36.929,0,0,0-13.385-9.53,45.657,45.657,0,0,0-17.9-3.34H666.317v96.37h25.106a46.207,46.207,0,0,0,17.9-3.29,36,36,0,0,0,13.385-9.53,42.973,42.973,0,0,0,8.434-15.18A70.669,70.669,0,0,0,731.138,1278.81Zm-122.433,71.42a67.859,67.859,0,0,1-23,14.73,80.462,80.462,0,0,1-29.811,5.31H501.177V1227.73H555.9a80.665,80.665,0,0,1,29.811,5.3,67.523,67.523,0,0,1,23,14.78,66.086,66.086,0,0,1,14.809,22.55,80.925,80.925,0,0,1,0,57.32A65.421,65.421,0,0,1,608.705,1350.23Zm-13.092-71.42a42.494,42.494,0,0,0-8.433-15.13,36.941,36.941,0,0,0-13.386-9.53,45.661,45.661,0,0,0-17.9-3.34H530.792v96.37H555.9a46.21,46.21,0,0,0,17.9-3.29,36.016,36.016,0,0,0,13.386-9.53,42.987,42.987,0,0,0,8.433-15.18A70.692,70.692,0,0,0,595.613,1278.81Z" transform="translate(-500 -1099)"/>
  </g>
</svg>
